<svg width="52" height="18" viewBox="0 0 52 18" fill="none" xmlns="http://www.w3.org/2000/svg">
<path d="M3.87294 16.3469C3.76192 16.5689 3.6287 16.765 3.47327 16.9353C3.31785 17.1055 3.15132 17.2461 2.97368 17.3571C2.79605 17.4682 2.61472 17.5496 2.42969 17.6014C2.24465 17.6606 2.07072 17.6902 1.90789 17.6902C1.67105 17.6902 1.47122 17.6273 1.30839 17.5015C1.14556 17.383 1.06414 17.2054 1.06414 16.9686C1.06414 16.8872 1.07155 16.7983 1.08635 16.7021C1.10855 16.5985 1.14926 16.4875 1.20847 16.3691C1.77097 15.2071 2.32977 14.0895 2.88487 13.0163C3.44737 11.9431 3.98766 10.9402 4.50576 10.0076C5.03125 9.07507 5.52714 8.22762 5.99342 7.46528C6.4597 6.69554 6.88158 6.04053 7.25905 5.50023C7.64391 4.95253 7.96957 4.53066 8.23602 4.23461C8.50987 3.93855 8.7097 3.79053 8.83553 3.79053C9.09457 3.79053 9.28701 3.86454 9.41283 4.01257C9.53865 4.16059 9.60156 4.33452 9.60156 4.53436C9.60156 4.69719 9.56086 4.86002 9.47944 5.02285C9.29441 5.40031 9.08347 5.82959 8.84663 6.31067C8.61719 6.78436 8.37294 7.29135 8.1139 7.83165C7.85485 8.36454 7.5847 8.91964 7.30345 9.49694C7.0222 10.0668 6.74465 10.6367 6.47081 11.2066C6.19696 11.7691 5.92681 12.3168 5.66036 12.8497C5.40132 13.3752 5.15707 13.8637 4.92763 14.3152C4.70559 14.7667 4.50206 15.1701 4.31702 15.5253C4.13939 15.8732 3.99137 16.147 3.87294 16.3469ZM16.8512 3.35755C16.8512 3.49077 16.7993 3.67951 16.6957 3.92375C16.5995 4.16059 16.4589 4.39373 16.2738 4.62317C16.0962 4.85262 15.8779 5.05245 15.6188 5.22268C15.3672 5.39291 15.0859 5.47803 14.7751 5.47803C14.7011 5.47803 14.6086 5.47433 14.4975 5.46692C14.3865 5.45212 14.2755 5.42252 14.1645 5.37811C14.0609 5.3337 13.972 5.27079 13.898 5.18938C13.824 5.10796 13.787 5.00064 13.787 4.86742C13.787 4.80081 13.8203 4.70829 13.8869 4.58987C13.9535 4.46405 14.0238 4.33082 14.0979 4.1902C14.1793 4.04957 14.2533 3.91265 14.3199 3.77942C14.3865 3.6462 14.4198 3.53518 14.4198 3.44637C14.4198 3.19472 14.2422 3.01339 13.8869 2.90237C13.5317 2.78395 12.9359 2.72474 12.0995 2.72474C11.2632 2.75434 10.5082 2.80615 9.8347 2.88016C9.16118 2.94678 8.53947 3.03559 7.96957 3.14661C7.39967 3.25023 6.86678 3.37235 6.37089 3.51298C5.875 3.6536 5.38651 3.80533 4.90543 3.96816C4.42434 4.12359 3.93586 4.29382 3.43997 4.47885C2.95148 4.65648 2.42969 4.83781 1.87459 5.02285C1.82278 5.03765 1.77097 5.05245 1.71916 5.06725C1.67475 5.08206 1.63405 5.08946 1.59704 5.08946C1.47862 5.08946 1.3713 5.06355 1.27508 5.01174C1.17887 4.95993 1.09375 4.88962 1.01974 4.80081C0.953125 4.71199 0.897615 4.61207 0.853207 4.50105C0.816201 4.39003 0.797697 4.27531 0.797697 4.15689C0.797697 3.96446 0.953125 3.74982 1.26398 3.51298C1.57484 3.26873 2.00041 3.02449 2.54071 2.78025C3.081 2.536 3.71752 2.29916 4.45025 2.06972C5.18298 1.83288 5.97122 1.62564 6.81497 1.44801C7.66612 1.26298 8.55058 1.11865 9.46834 1.01503C10.3935 0.904013 11.315 0.848504 12.2327 0.848504C13.0247 0.848504 13.7093 0.911415 14.2866 1.03724C14.8639 1.16306 15.3413 1.33699 15.7188 1.55903C16.0962 1.78107 16.3775 2.04752 16.5625 2.35837C16.7475 2.66183 16.8438 2.99489 16.8512 3.35755ZM14.3421 10.7515C13.9942 10.7515 13.6575 10.8403 13.3318 11.0179C13.0136 11.1881 12.7286 11.4176 12.477 11.7062C12.2327 11.9875 12.0366 12.3094 11.8886 12.6721C11.7405 13.0274 11.6665 13.3937 11.6665 13.7712C11.6665 13.9118 11.6776 14.0673 11.6998 14.2375C11.722 14.4003 11.7664 14.5557 11.8331 14.7038C11.9071 14.8444 12.0107 14.9628 12.1439 15.059C12.2771 15.1552 12.4548 15.2034 12.6768 15.2034C13.0173 15.2034 13.3466 15.1145 13.6649 14.9369C13.9905 14.7519 14.2792 14.515 14.5308 14.2264C14.7825 13.9303 14.9823 13.5973 15.1303 13.2272C15.2784 12.8571 15.3524 12.4834 15.3524 12.1059C15.3524 11.9579 15.3413 11.8062 15.3191 11.6507C15.3043 11.4879 15.2599 11.3399 15.1859 11.2066C15.1192 11.0734 15.0193 10.9661 14.8861 10.8847C14.7529 10.7959 14.5715 10.7515 14.3421 10.7515ZM14.9194 8.79752C15.2007 8.79752 15.5004 8.83452 15.8187 8.90854C16.1443 8.98255 16.4441 9.10837 16.7179 9.286C16.9918 9.46364 17.2175 9.70048 17.3951 9.99653C17.5802 10.2852 17.6727 10.6441 17.6727 11.0734C17.6727 11.2955 17.6431 11.5508 17.5839 11.8395C17.5247 12.1207 17.4359 12.4168 17.3174 12.7276C17.3914 12.8164 17.4766 12.8793 17.5728 12.9163C17.669 12.9534 17.7726 12.9719 17.8836 12.9719C18.0391 12.9719 18.2093 12.9275 18.3943 12.8386C18.5868 12.7498 18.7829 12.6351 18.9827 12.4945C19.1826 12.3538 19.3824 12.1947 19.5822 12.0171C19.7821 11.8395 19.9708 11.6618 20.1484 11.4842C20.3261 11.3066 20.4852 11.14 20.6258 10.9846C20.7739 10.8218 20.896 10.6849 20.9922 10.5738C21.044 10.522 21.1069 10.4961 21.1809 10.4961C21.2845 10.4961 21.3771 10.5516 21.4585 10.6626C21.5399 10.7663 21.5806 10.9143 21.5806 11.1067C21.5806 11.2992 21.5214 11.5212 21.403 11.7728C21.2919 12.0245 21.081 12.2872 20.7701 12.5611C20.5925 12.7535 20.389 12.9756 20.1595 13.2272C19.9301 13.4788 19.6859 13.7157 19.4268 13.9377C19.1678 14.1598 18.8976 14.3485 18.6164 14.5039C18.3351 14.6594 18.0539 14.7371 17.7726 14.7371C17.5802 14.7371 17.3914 14.7075 17.2064 14.6483C17.0288 14.589 16.8475 14.4928 16.6624 14.3596C16.396 14.7741 16.0925 15.1515 15.7521 15.492C15.4116 15.8325 15.0304 16.1248 14.6086 16.3691C14.1941 16.6133 13.7426 16.802 13.2541 16.9353C12.773 17.0759 12.2586 17.1462 11.7109 17.1462C11.5037 17.1462 11.2632 17.1055 10.9893 17.0241C10.7155 16.9427 10.4527 16.8094 10.2011 16.6244C9.95683 16.432 9.74959 16.184 9.57936 15.8806C9.40913 15.5771 9.32401 15.2071 9.32401 14.7704C9.32401 14.4743 9.37212 14.1191 9.46834 13.7046C9.56456 13.2901 9.70888 12.8645 9.90132 12.4279C10.1012 11.9838 10.3491 11.5471 10.6451 11.1178C10.9486 10.6812 11.3076 10.2926 11.722 9.95212C12.1365 9.60426 12.6102 9.32671 13.1431 9.11947C13.676 8.90484 14.2681 8.79752 14.9194 8.79752ZM25.0777 10.6404C24.6558 10.6404 24.234 10.7441 23.8121 10.9513C23.3902 11.1511 23.009 11.4176 22.6686 11.7506C22.3355 12.0837 22.0617 12.4612 21.847 12.883C21.6324 13.2975 21.5251 13.7194 21.5251 14.1487C21.5251 14.2671 21.5362 14.3892 21.5584 14.515C21.5806 14.6335 21.625 14.7445 21.6916 14.8481C21.7656 14.9517 21.8692 15.0368 22.0025 15.1034C22.1357 15.1701 22.3133 15.2034 22.5354 15.2034C22.9646 15.2034 23.3791 15.1034 23.7788 14.9036C24.1859 14.6964 24.5485 14.4262 24.8668 14.0932C25.185 13.7601 25.4404 13.3863 25.6328 12.9719C25.8252 12.55 25.9215 12.1281 25.9215 11.7062C25.9215 11.5952 25.9104 11.4768 25.8882 11.351C25.8734 11.2251 25.8364 11.1104 25.7771 11.0068C25.7179 10.9032 25.6328 10.8181 25.5218 10.7515C25.4108 10.6775 25.2627 10.6404 25.0777 10.6404ZM26.0103 15.1145C25.3812 15.8695 24.7114 16.4246 24.0008 16.7798C23.2977 17.1277 22.5354 17.3016 21.7138 17.3016C21.2623 17.3016 20.8812 17.235 20.5703 17.1018C20.2595 16.976 20.0078 16.802 19.8154 16.58C19.6229 16.358 19.4823 16.0989 19.3935 15.8029C19.3121 15.5068 19.2714 15.1923 19.2714 14.8592C19.2714 14.4817 19.3195 14.0932 19.4157 13.6935C19.5119 13.2864 19.6377 12.8941 19.7932 12.5167C19.8968 12.2724 19.9819 12.0689 20.0485 11.9061C20.1151 11.7432 20.1706 11.6063 20.2151 11.4953C20.2595 11.3769 20.2965 11.277 20.3261 11.1955C20.3631 11.1067 20.4001 11.0179 20.4371 10.9291C20.4741 10.8329 20.5185 10.7256 20.5703 10.6071C20.6221 10.4813 20.6924 10.3222 20.7813 10.1298L24.023 2.92457C24.0674 2.82836 24.1303 2.73584 24.2118 2.64702C24.3006 2.55821 24.4005 2.48049 24.5115 2.41388C24.6225 2.33987 24.741 2.28436 24.8668 2.24735C25 2.20294 25.1332 2.18074 25.2664 2.18074C25.6069 2.18074 25.8438 2.24735 25.977 2.38058C26.1176 2.5138 26.1879 2.67663 26.1879 2.86906C26.1879 3.01709 26.1509 3.17992 26.0769 3.35755C26.0029 3.52778 25.9215 3.68691 25.8327 3.83493C25.285 4.88592 24.7669 5.95541 24.2784 7.04341C23.7899 8.124 23.2718 9.19349 22.7241 10.2519C22.9609 10.0668 23.2126 9.88921 23.479 9.71898C23.7455 9.54135 24.023 9.38592 24.3117 9.2527C24.6003 9.11207 24.9001 9.00105 25.2109 8.91964C25.5218 8.83082 25.8401 8.78642 26.1657 8.78642C26.3952 8.78642 26.6283 8.83082 26.8651 8.91964C27.102 9.00845 27.3166 9.13798 27.509 9.30821C27.7089 9.47844 27.868 9.68938 27.9864 9.94102C28.1123 10.1853 28.1752 10.4702 28.1752 10.7959C28.1752 10.8699 28.153 11.0179 28.1086 11.24C28.0641 11.462 27.9975 11.7136 27.9087 11.9949C27.8273 12.2687 27.7237 12.5537 27.5979 12.8497C27.4794 13.1384 27.3462 13.3937 27.1982 13.6158C27.25 13.6972 27.3166 13.749 27.398 13.7712C27.4794 13.786 27.572 13.7934 27.6756 13.7934C28.016 13.7934 28.3528 13.749 28.6859 13.6602C29.0263 13.5714 29.3446 13.464 29.6406 13.3382C29.9441 13.205 30.2216 13.0681 30.4733 12.9275C30.7249 12.7868 30.9359 12.6647 31.1061 12.5611C31.1949 12.4649 31.2911 12.4168 31.3947 12.4168C31.5206 12.4168 31.6279 12.4723 31.7167 12.5833C31.8129 12.6943 31.861 12.8386 31.861 13.0163C31.861 13.1865 31.824 13.3567 31.75 13.527C31.6834 13.6898 31.5576 13.8711 31.3725 14.071C31.0395 14.2708 30.7027 14.4595 30.3623 14.6372C30.0292 14.8148 29.6887 14.9702 29.3409 15.1034C28.993 15.2293 28.6377 15.3329 28.2751 15.4143C27.9198 15.4883 27.5572 15.5253 27.1871 15.5253C26.9502 15.5253 26.7319 15.492 26.5321 15.4254C26.3322 15.3588 26.1583 15.2552 26.0103 15.1145ZM32.2385 7.26544C32.2385 7.09521 32.2681 6.92128 32.3273 6.74365C32.3939 6.55862 32.4901 6.39209 32.616 6.24406C32.7418 6.09604 32.8972 5.97392 33.0822 5.8777C33.2747 5.78148 33.5004 5.73337 33.7595 5.73337C34.1887 5.73337 34.4885 5.81849 34.6587 5.98872C34.8289 6.15155 34.9141 6.35878 34.9141 6.61043C34.9141 6.75105 34.8845 6.90648 34.8252 7.07671C34.7734 7.24694 34.692 7.40607 34.581 7.5541C34.47 7.69472 34.3257 7.81314 34.148 7.90936C33.9704 8.00558 33.7595 8.05368 33.5152 8.05368C33.0563 8.05368 32.7344 7.98337 32.5493 7.84275C32.3643 7.69472 32.2607 7.50229 32.2385 7.26544ZM31.0173 9.76339C31.1431 9.55615 31.2874 9.40813 31.4502 9.31931C31.6131 9.23049 31.7796 9.18609 31.9498 9.18609C32.2311 9.18609 32.4716 9.2786 32.6715 9.46364C32.8787 9.64127 32.9823 9.87071 32.9823 10.152C32.9749 10.2186 32.9638 10.2852 32.949 10.3518C32.9416 10.4184 32.9194 10.485 32.8824 10.5516C32.7788 10.7441 32.6937 10.9069 32.6271 11.0401C32.5604 11.1733 32.4975 11.2992 32.4383 11.4176C32.3865 11.5286 32.3347 11.6396 32.2829 11.7506C32.2311 11.8617 32.1682 11.9949 32.0942 12.1503C32.0053 12.3353 31.9054 12.5389 31.7944 12.7609C31.6834 12.9756 31.5761 13.1976 31.4725 13.427C31.3762 13.6565 31.2911 13.8822 31.2171 14.1043C31.1505 14.3263 31.1172 14.5298 31.1172 14.7149C31.1172 14.9147 31.1653 15.0479 31.2615 15.1145C31.3651 15.1738 31.5095 15.2034 31.6945 15.2034C31.9017 15.2034 32.1164 15.1589 32.3384 15.0701C32.5678 14.9813 32.7973 14.8666 33.0267 14.726C33.2562 14.5853 33.4819 14.4262 33.7039 14.2486C33.926 14.0636 34.1332 13.8785 34.3257 13.6935C34.5255 13.5085 34.7068 13.3308 34.8697 13.1606C35.0399 12.9904 35.1805 12.8386 35.2915 12.7054C35.4396 12.5648 35.5876 12.4945 35.7356 12.4945C35.8688 12.4945 35.9762 12.5537 36.0576 12.6721C36.1464 12.7905 36.1908 12.9423 36.1908 13.1273C36.1908 13.2975 36.1464 13.4788 36.0576 13.6713C35.9762 13.8637 35.8392 14.0451 35.6468 14.2153C35.2693 14.6001 34.8845 14.9702 34.4922 15.3255C34.0999 15.6733 33.6965 15.9842 33.2821 16.258C32.875 16.5245 32.4642 16.7391 32.0498 16.902C31.6353 17.0648 31.2171 17.1462 30.7952 17.1462C30.1957 17.1462 29.722 16.9945 29.3742 16.691C29.0337 16.3802 28.8635 15.8991 28.8635 15.2478C28.8635 14.9073 28.9116 14.5742 29.0078 14.2486C29.104 13.9229 29.2188 13.6084 29.352 13.3049C29.4852 12.9941 29.6258 12.698 29.7739 12.4168C29.9219 12.1281 30.0477 11.8543 30.1513 11.5952C30.1883 11.499 30.2512 11.351 30.3401 11.1511C30.4363 10.9513 30.5362 10.7478 30.6398 10.5405C30.7582 10.2963 30.884 10.0372 31.0173 9.76339ZM39.2771 10.807C38.9293 10.807 38.5925 10.8958 38.2669 11.0734C37.9412 11.2511 37.6526 11.4842 37.4009 11.7728C37.1493 12.0615 36.9494 12.3872 36.8014 12.7498C36.6534 13.1051 36.5794 13.464 36.5794 13.8267C36.5794 13.9747 36.5868 14.1302 36.6016 14.293C36.6238 14.4484 36.6682 14.5927 36.7348 14.726C36.8014 14.8592 36.8939 14.9702 37.0123 15.059C37.1382 15.1478 37.3047 15.1923 37.5119 15.1923C37.6748 15.1923 37.8635 15.1219 38.0781 14.9813C38.3002 14.8333 38.5259 14.6483 38.7553 14.4262C38.9922 14.1968 39.2216 13.9488 39.4437 13.6824C39.6657 13.4085 39.8655 13.1421 40.0432 12.883C40.2208 12.624 40.3651 12.3909 40.4762 12.1836C40.5872 11.9764 40.6427 11.8247 40.6427 11.7284C40.6427 11.5878 40.5946 11.462 40.4984 11.351C40.4021 11.2326 40.2837 11.1326 40.1431 11.0512C40.0025 10.9698 39.8507 10.9106 39.6879 10.8736C39.5325 10.8292 39.3956 10.807 39.2771 10.807ZM46.9708 13.6713C46.8376 13.7971 46.66 13.971 46.4379 14.1931C46.2159 14.4151 45.9605 14.6557 45.6719 14.9147C45.3906 15.1738 45.0872 15.4365 44.7615 15.7029C44.4433 15.962 44.1139 16.1988 43.7734 16.4135C43.4404 16.6281 43.111 16.802 42.7854 16.9353C42.4597 17.0759 42.1526 17.1462 41.8639 17.1462C41.6049 17.1462 41.3828 17.0907 41.1978 16.9797C41.0128 16.8687 40.8573 16.7243 40.7315 16.5467C40.6131 16.3691 40.5243 16.1692 40.4651 15.9472C40.4058 15.7177 40.3762 15.4846 40.3762 15.2478C40.3762 15.0923 40.3873 14.9406 40.4095 14.7926C40.4317 14.6372 40.4688 14.4928 40.5206 14.3596C40.2911 14.6705 40.0284 14.9924 39.7323 15.3255C39.4437 15.6511 39.1291 15.9509 38.7887 16.2247C38.4556 16.4912 38.104 16.7095 37.734 16.8798C37.3713 17.0574 37.0012 17.1462 36.6238 17.1462C36.4313 17.1462 36.2056 17.1055 35.9465 17.0241C35.6949 16.9501 35.4544 16.8242 35.2249 16.6466C34.9955 16.469 34.803 16.2395 34.6476 15.9583C34.4922 15.677 34.4145 15.3329 34.4145 14.9258C34.4145 14.6224 34.4589 14.2597 34.5477 13.8378C34.6439 13.4159 34.7845 12.9793 34.9696 12.5278C35.162 12.0689 35.4026 11.6174 35.6912 11.1733C35.9873 10.7293 36.3351 10.3333 36.7348 9.98543C37.1345 9.63017 37.5896 9.34521 38.1003 9.13058C38.611 8.90854 39.1809 8.79752 39.81 8.79752C40.1357 8.79752 40.4206 8.83822 40.6649 8.91964C40.9091 9.00105 41.1164 9.08987 41.2866 9.18609C41.479 9.30451 41.6493 9.43403 41.7973 9.57466C41.9231 9.50804 42.0526 9.44513 42.1859 9.38592C42.2969 9.33411 42.4116 9.2897 42.53 9.2527C42.6558 9.20829 42.7632 9.18609 42.852 9.18609C43.1332 9.18609 43.3627 9.2638 43.5403 9.41923C43.7179 9.57466 43.8067 9.74489 43.8067 9.92992C43.8067 9.98173 43.803 10.0224 43.7956 10.052C43.7586 10.1927 43.6994 10.3703 43.618 10.5849C43.544 10.7996 43.4589 11.0401 43.3627 11.3066C43.2665 11.5656 43.1665 11.8395 43.0629 12.1281C42.9667 12.4094 42.8779 12.6869 42.7965 12.9608C42.7151 13.2346 42.6484 13.4937 42.5966 13.7379C42.5448 13.9747 42.5189 14.1783 42.5189 14.3485C42.5189 14.5705 42.5559 14.7556 42.6299 14.9036C42.704 15.0442 42.8298 15.1145 43.0074 15.1145C43.1184 15.1145 43.2479 15.0812 43.396 15.0146C43.5514 14.9406 43.7179 14.8444 43.8956 14.726C44.0732 14.6076 44.2545 14.4743 44.4396 14.3263C44.632 14.1709 44.817 14.0154 44.9947 13.86C45.4091 13.49 45.8495 13.0681 46.3158 12.5944C46.4342 12.4982 46.5489 12.4501 46.66 12.4501C46.808 12.4501 46.9301 12.5241 47.0263 12.6721C47.1299 12.8127 47.1817 12.9719 47.1817 13.1495C47.1817 13.3567 47.1114 13.5307 46.9708 13.6713ZM49.0025 10.6182C49.4539 10.8551 49.8573 11.1252 50.2126 11.4287C50.5678 11.7321 50.8676 12.0541 51.1118 12.3946C51.3635 12.7276 51.5522 13.0681 51.678 13.4159C51.8113 13.7638 51.8779 14.1043 51.8779 14.4373C51.8779 14.8592 51.7558 15.2404 51.5115 15.5808C51.2747 15.9139 50.9601 16.1988 50.5678 16.4357C50.183 16.6651 49.7389 16.839 49.2356 16.9575C48.7397 17.0833 48.2364 17.1462 47.7257 17.1462C47.3409 17.1462 46.9671 17.1018 46.6044 17.013C46.2418 16.9316 45.9087 16.802 45.6053 16.6244C45.3092 16.4468 45.0539 16.221 44.8392 15.9472C44.6246 15.6659 44.4729 15.3329 44.384 14.948C44.3692 14.8888 44.3618 14.8407 44.3618 14.8037C44.3618 14.6038 44.4322 14.4336 44.5728 14.293C44.7134 14.145 44.8688 14.071 45.0391 14.071C45.1205 14.071 45.2093 14.0858 45.3055 14.1154C45.4091 14.145 45.4868 14.2116 45.5387 14.3152C45.6349 14.4928 45.7681 14.652 45.9383 14.7926C46.116 14.9332 46.3121 15.0553 46.5267 15.1589C46.7414 15.2552 46.9671 15.3329 47.2039 15.3921C47.4482 15.4439 47.685 15.4698 47.9145 15.4698C48.1513 15.4698 48.3771 15.4476 48.5917 15.4032C48.8137 15.3588 49.0062 15.2885 49.169 15.1923C49.3392 15.096 49.4725 14.9739 49.5687 14.8259C49.6649 14.6779 49.713 14.4965 49.713 14.2819C49.713 13.9044 49.6279 13.5566 49.4576 13.2383C49.2874 12.9201 49.0654 12.6277 48.7915 12.3613C48.5251 12.0874 48.2179 11.8358 47.8701 11.6063C47.5296 11.3695 47.1891 11.1437 46.8487 10.9291C46.8117 10.9069 46.7562 10.844 46.6822 10.7404C46.6081 10.6293 46.5711 10.5183 46.5711 10.4073C46.5711 10.3185 46.5933 10.2482 46.6377 10.1964C46.7562 10.0409 46.8931 9.88181 47.0485 9.71898C47.2039 9.55615 47.3705 9.40813 47.5481 9.2749C47.7257 9.13428 47.9182 9.02326 48.1254 8.94184C48.3326 8.85303 48.5473 8.80862 48.7693 8.80862C48.9322 8.80862 49.0839 8.83082 49.2245 8.87523C49.3651 8.91964 49.4836 8.97885 49.5798 9.05286C49.676 9.11947 49.75 9.19719 49.8018 9.286C49.861 9.36742 49.8906 9.44513 49.8906 9.51915C49.8906 9.62276 49.8647 9.72268 49.8129 9.8189C49.7611 9.91512 49.6908 10.0076 49.602 10.0964C49.5206 10.1853 49.4243 10.2741 49.3133 10.3629C49.2097 10.4517 49.1061 10.5368 49.0025 10.6182Z" fill="white"/>
</svg>
