<?xml version="1.0" standalone="no"?><!DOCTYPE svg PUBLIC "-//W3C//DTD SVG 1.1//EN" "http://www.w3.org/Graphics/SVG/1.1/DTD/svg11.dtd"><svg t="1760627298811" class="icon" viewBox="0 0 1024 1024" version="1.1" xmlns="http://www.w3.org/2000/svg" p-id="17373" xmlns:xlink="http://www.w3.org/1999/xlink" width="200" height="200"><path d="M747.636364 954.181818h-115.2V532.642909a78.638545 78.638545 0 0 1 78.545454-78.545454H884.363636a46.545455 46.545455 0 0 1 46.545455 46.545454v270.266182C930.909091 871.959273 848.686545 954.181818 747.636364 954.181818z" fill="#FFA6A6" p-id="17374"></path><path d="M93.090909 861.090909V186.181818a93.090909 93.090909 0 0 1 93.090909-93.090909h442.181818a93.090909 93.090909 0 0 1 93.090909 93.090909v768H186.181818a93.090909 93.090909 0 0 1-93.090909-93.090909z" fill="#D63D3D" p-id="17375"></path><path d="M197.818182 325.818182m11.636363 0l395.636364 0q11.636364 0 11.636364 11.636363l0 55.272728q0 11.636364-11.636364 11.636363l-395.636364 0q-11.636364 0-11.636363-11.636363l0-55.272728q0-11.636364 11.636363-11.636363Z" fill="#FFD3D3" p-id="17376"></path><path d="M197.818182 482.909091m11.636363 0l238.545455 0q11.636364 0 11.636364 11.636364l0 55.272727q0 11.636364-11.636364 11.636363l-238.545455 0q-11.636364 0-11.636363-11.636363l0-55.272727q0-11.636364 11.636363-11.636364Z" fill="#FFD3D3" p-id="17377"></path></svg>